HIERARCHY
ROOT CG
{
	OFFSET 0.000000 0.000000 27.772259
	CHANNELS 6 Xposition Yposition Zposition Xrotation Yrotation Zrotation
	JOINT Pelvis
	{
		OFFSET 0.000000 0.000000 0.000000
		CHANNELS 3 Xrotation Yrotation Zrotation
		JOINT Spine
		{
			OFFSET -0.000017 -10.490843 -0.495483
			CHANNELS 3 Xrotation Yrotation Zrotation
			JOINT Spine1
			{
				OFFSET -0.000010 -22.678980 0.018061
				CHANNELS 3 Xrotation Yrotation Zrotation
				JOINT Spine2
				{
					OFFSET -0.000010 -22.678967 0.018061
					CHANNELS 3 Xrotation Yrotation Zrotation
					JOINT Spine3
					{
						OFFSET -0.000010 -22.678982 0.018059
						CHANNELS 3 Xrotation Yrotation Zrotation
						JOINT Neck
						{
							OFFSET -0.000012 -22.678986 -1.289251
							CHANNELS 3 Xrotation Yrotation Zrotation
							JOINT Neck1
							{
								OFFSET -0.000007 -16.255905 0.012947
								CHANNELS 3 Xrotation Yrotation Zrotation
								JOINT Head
								{
									OFFSET -0.000005 -10.784607 -0.287502
									CHANNELS 3 Xrotation Yrotation Zrotation
									JOINT Jaw01
									{
										OFFSET 0.000031 7.782959 5.073944
										CHANNELS 3 Xrotation Yrotation Zrotation
										JOINT Jaw02
										{
											OFFSET 0.000004 -34.927139 -18.883980
											CHANNELS 3 Xrotation Yrotation Zrotation
											End Site
											{
												OFFSET -0.000170 8.372803 -38.812450
											}
										}
									}
									JOINT Nose
									{
										OFFSET -0.000002 -25.700912 7.222265
										CHANNELS 3 Xrotation Yrotation Zrotation
										End Site
										{
											OFFSET -0.000090 0.641281 -21.715439
										}
									}
									JOINT L_EyeSocket
									{
										OFFSET 7.352326 -19.832718 14.164183
										CHANNELS 3 Xrotation Yrotation Zrotation
										JOINT L_Eye
										{
											OFFSET -0.000868 -0.001053 0.016003
											CHANNELS 3 Xrotation Yrotation Zrotation
											End Site
											{
												OFFSET -0.001505 -0.001846 0.027969
											}
										}
										JOINT L_Eyelid_Top
										{
											OFFSET -0.001004 -0.002625 0.032516
											CHANNELS 3 Xrotation Yrotation Zrotation
											End Site
											{
												OFFSET -0.013218 0.005753 0.024086
											}
										}
										JOINT L_Eyelid_Bottom
										{
											OFFSET -0.001194 -0.002777 0.035381
											CHANNELS 3 Xrotation Yrotation Zrotation
											End Site
											{
												OFFSET -0.010032 0.008636 -0.024754
											}
										}
									}
									JOINT R_EyeSocket
									{
										OFFSET -7.352252 -19.832748 14.164206
										CHANNELS 3 Xrotation Yrotation Zrotation
										JOINT R_Eye
										{
											OFFSET 0.000875 -0.001068 0.015991
											CHANNELS 3 Xrotation Yrotation Zrotation
											End Site
											{
												OFFSET 0.001505 -0.001846 0.027962
											}
										}
										JOINT R_Eyelid_Top
										{
											OFFSET 0.001021 -0.002625 0.032516
											CHANNELS 3 Xrotation Yrotation Zrotation
											End Site
											{
												OFFSET 0.013214 0.005753 0.024078
											}
										}
										JOINT R_Eyelid_Bottom
										{
											OFFSET 0.001170 -0.002762 0.035366
											CHANNELS 3 Xrotation Yrotation Zrotation
											End Site
											{
												OFFSET 0.010029 0.008636 -0.024746
											}
										}
									}
								}
								JOINT Neck_Fat
								{
									OFFSET 0.000044 -9.595100 -17.491512
									CHANNELS 3 Xrotation Yrotation Zrotation
									End Site
									{
										OFFSET -0.000036 15.369423 -0.000007
									}
								}
							}
						}
						JOINT L_Clavicle
						{
							OFFSET 4.567107 -11.666092 -3.750029
							CHANNELS 3 Xrotation Yrotation Zrotation
							JOINT L_UpperArm
							{
								OFFSET 20.725666 -0.000053 -0.000032
								CHANNELS 3 Xrotation Yrotation Zrotation
								JOINT L_Forearm
								{
									OFFSET 5.265112 -0.585754 -20.155697
									CHANNELS 3 Xrotation Yrotation Zrotation
									JOINT L_Hand
									{
										OFFSET 2.653017 -10.877708 -16.383667
										CHANNELS 3 Xrotation Yrotation Zrotation
										JOINT L_Finger0
										{
											OFFSET -4.206146 -4.328911 -5.034346
											CHANNELS 3 Xrotation Yrotation Zrotation
											JOINT L_Finger01
											{
												OFFSET 0.084272 -1.788536 -4.181065
												CHANNELS 3 Xrotation Yrotation Zrotation
												End Site
												{
													OFFSET 3.261885 3.094673 -0.685818
												}
											}
										}
										JOINT L_Finger1
										{
											OFFSET -1.039112 -6.775742 -3.499998
											CHANNELS 3 Xrotation Yrotation Zrotation
											JOINT L_Finger11
											{
												OFFSET 1.320335 -3.040672 -6.425793
												CHANNELS 3 Xrotation Yrotation Zrotation
												End Site
												{
													OFFSET -1.244579 6.832077 -2.013330
												}
											}
										}
										JOINT L_Finger2
										{
											OFFSET 2.531296 -5.656487 -3.286415
											CHANNELS 3 Xrotation Yrotation Zrotation
											JOINT L_Finger21
											{
												OFFSET 1.991665 -2.402016 -5.957748
												CHANNELS 3 Xrotation Yrotation Zrotation
												End Site
												{
													OFFSET -2.793068 5.800873 -1.944178
												}
											}
										}
										JOINT L_Finger3
										{
											OFFSET 5.474075 -3.302338 -2.655975
											CHANNELS 3 Xrotation Yrotation Zrotation
											JOINT L_Finger31
											{
												OFFSET 2.026943 -1.267532 -5.961166
												CHANNELS 3 Xrotation Yrotation Zrotation
												End Site
												{
													OFFSET -4.375172 4.343658 -1.800320
												}
											}
										}
										JOINT L_Finger4
										{
											OFFSET 4.825745 1.085899 -2.321970
											CHANNELS 3 Xrotation Yrotation Zrotation
											JOINT L_Finger41
											{
												OFFSET 3.358261 -1.829651 -3.744434
												CHANNELS 3 Xrotation Yrotation Zrotation
												End Site
												{
													OFFSET -3.843296 2.955200 -2.267633
												}
											}
										}
									}
								}
							}
						}
						JOINT R_Clavicle
						{
							OFFSET -4.567111 -11.666092 -3.750036
							CHANNELS 3 Xrotation Yrotation Zrotation
							JOINT R_UpperArm
							{
								OFFSET -20.725670 -0.000031 0.000038
								CHANNELS 3 Xrotation Yrotation Zrotation
								JOINT R_Forearm
								{
									OFFSET -5.265285 -0.585762 -20.155655
									CHANNELS 3 Xrotation Yrotation Zrotation
									JOINT R_Hand
									{
										OFFSET -2.653147 -10.877739 -16.383663
										CHANNELS 3 Xrotation Yrotation Zrotation
										JOINT R_Finger0
										{
											OFFSET 4.206116 -4.328888 -5.034388
											CHANNELS 3 Xrotation Yrotation Zrotation
											JOINT R_Finger01
											{
												OFFSET -0.084324 -1.788544 -4.181051
												CHANNELS 3 Xrotation Yrotation Zrotation
												End Site
												{
													OFFSET -3.261890 3.094666 -0.685791
												}
											}
										}
										JOINT R_Finger1
										{
											OFFSET 1.039101 -6.775711 -3.499994
											CHANNELS 3 Xrotation Yrotation Zrotation
											JOINT R_Finger11
											{
												OFFSET -1.320374 -3.040672 -6.425779
												CHANNELS 3 Xrotation Yrotation Zrotation
												End Site
												{
													OFFSET 1.244556 6.832077 -2.013342
												}
											}
										}
										JOINT R_Finger2
										{
											OFFSET -2.531307 -5.656464 -3.286409
											CHANNELS 3 Xrotation Yrotation Zrotation
											JOINT R_Finger21
											{
												OFFSET -1.991707 -2.402016 -5.957708
												CHANNELS 3 Xrotation Yrotation Zrotation
												End Site
												{
													OFFSET 2.793037 5.800858 -1.944197
												}
											}
										}
										JOINT R_Finger3
										{
											OFFSET -5.474091 -3.302330 -2.655947
											CHANNELS 3 Xrotation Yrotation Zrotation
											JOINT R_Finger31
											{
												OFFSET -2.026993 -1.267532 -5.961157
												CHANNELS 3 Xrotation Yrotation Zrotation
												End Site
												{
													OFFSET 4.375156 4.343674 -1.800358
												}
											}
										}
										JOINT R_Finger4
										{
											OFFSET -4.825756 1.085922 -2.321926
											CHANNELS 3 Xrotation Yrotation Zrotation
											JOINT R_Finger41
											{
												OFFSET -3.358307 -1.829651 -3.744390
												CHANNELS 3 Xrotation Yrotation Zrotation
												End Site
												{
													OFFSET 3.843273 2.955208 -2.267666
												}
											}
										}
									}
								}
							}
						}
					}
				}
			}
		}
		JOINT Tail01
		{
			OFFSET -0.000010 10.922326 -0.017508
			CHANNELS 3 Xrotation Yrotation Zrotation
			JOINT Tail02
			{
				OFFSET -0.000022 21.986111 0.000013
				CHANNELS 3 Xrotation Yrotation Zrotation
				JOINT Tail03
				{
					OFFSET -0.000022 21.986118 0.000002
					CHANNELS 3 Xrotation Yrotation Zrotation
					JOINT Tail04
					{
						OFFSET -0.000022 21.986122 0.000004
						CHANNELS 3 Xrotation Yrotation Zrotation
						JOINT Tail05
						{
							OFFSET -0.000022 21.986099 0.000010
							CHANNELS 3 Xrotation Yrotation Zrotation
							JOINT Tail06
							{
								OFFSET -0.000022 21.986099 0.000006
								CHANNELS 3 Xrotation Yrotation Zrotation
								JOINT Tail07
								{
									OFFSET -0.000022 21.986099 0.000000
									CHANNELS 3 Xrotation Yrotation Zrotation
									JOINT Tail08
									{
										OFFSET -0.000022 21.984848 0.000050
										CHANNELS 3 Xrotation Yrotation Zrotation
										JOINT Tail09
										{
											OFFSET -0.000025 21.926025 -1.606211
											CHANNELS 3 Xrotation Yrotation Zrotation
											JOINT Tail10
											{
												OFFSET -0.000027 21.750092 -3.203882
												CHANNELS 3 Xrotation Yrotation Zrotation
												End Site
												{
													OFFSET -0.000036 4.767395 21.461668
												}
											}
										}
									}
								}
							}
						}
					}
				}
			}
		}
		JOINT L_Thigh
		{
			OFFSET 24.788780 0.000021 -0.000034
			CHANNELS 3 Xrotation Yrotation Zrotation
			JOINT L_Calf
			{
				OFFSET 4.720837 4.161326 -21.049969
				CHANNELS 3 Xrotation Yrotation Zrotation
				JOINT L_Foot
				{
					OFFSET 2.154160 21.114433 -11.949743
					CHANNELS 3 Xrotation Yrotation Zrotation
					JOINT L_Toe0
					{
						OFFSET 4.557564 9.251841 -8.735286
						CHANNELS 3 Xrotation Yrotation Zrotation
						End Site
						{
							OFFSET 4.555542 -12.646044 1.018752
						}
					}
					JOINT L_Toe1
					{
						OFFSET 2.346291 5.845602 -11.687160
						CHANNELS 3 Xrotation Yrotation Zrotation
						End Site
						{
							OFFSET 5.347954 -12.298279 1.365644
						}
					}
					JOINT L_Toe2
					{
						OFFSET -0.356020 3.902458 -12.541145
						CHANNELS 3 Xrotation Yrotation Zrotation
						End Site
						{
							OFFSET 3.916235 -12.806129 1.542549
						}
					}
					JOINT L_Toe3
					{
						OFFSET -4.603447 3.183935 -12.435249
						CHANNELS 3 Xrotation Yrotation Zrotation
						End Site
						{
							OFFSET 3.810858 -12.587427 2.957583
						}
					}
					JOINT L_Toe4
					{
						OFFSET -7.144358 6.231495 -10.072764
						CHANNELS 3 Xrotation Yrotation Zrotation
						End Site
						{
							OFFSET 3.810858 -12.587425 2.957585
						}
					}
				}
			}
		}
		JOINT R_Thigh
		{
			OFFSET -24.788780 -0.000024 0.000034
			CHANNELS 3 Xrotation Yrotation Zrotation
			JOINT R_Calf
			{
				OFFSET -4.720922 4.161324 -21.049952
				CHANNELS 3 Xrotation Yrotation Zrotation
				JOINT R_Foot
				{
					OFFSET -2.154238 21.114414 -11.949730
					CHANNELS 3 Xrotation Yrotation Zrotation
					JOINT R_Toe0
					{
						OFFSET -4.557598 9.251823 -8.735270
						CHANNELS 3 Xrotation Yrotation Zrotation
						End Site
						{
							OFFSET -4.555508 -12.646051 1.018756
						}
					}
					JOINT R_Toe1
					{
						OFFSET -2.346325 5.845589 -11.687157
						CHANNELS 3 Xrotation Yrotation Zrotation
						End Site
						{
							OFFSET -5.347919 -12.298286 1.365654
						}
					}
					JOINT R_Toe2
					{
						OFFSET 0.355980 3.902462 -12.541145
						CHANNELS 3 Xrotation Yrotation Zrotation
						End Site
						{
							OFFSET -3.916199 -12.806131 1.542559
						}
					}
					JOINT R_Toe3
					{
						OFFSET 4.603411 3.183941 -12.435266
						CHANNELS 3 Xrotation Yrotation Zrotation
						End Site
						{
							OFFSET -3.810825 -12.587429 2.957591
						}
					}
					JOINT R_Toe4
					{
						OFFSET 7.144323 6.231503 -10.072779
						CHANNELS 3 Xrotation Yrotation Zrotation
						End Site
						{
							OFFSET -3.810825 -12.587433 2.957584
						}
					}
				}
			}
		}
	}
}
MOTION
Frames: 4
Frame Time: 0.033333
0.000000 0.000000 27.772259 -0.000000 0.000000 0.000061 -12.384606 -0.000094 0.000045 12.384619 0.000009 -0.000017 0.000000 0.000000 -0.000000 2.758307 -0.000001 0.000008 -2.163955 0.000002 -0.000003 13.182646 -0.000003 0.000016 -1.026999 0.000002 -0.000005 -6.455205 0.000002 -0.000016 -12.958094 -0.000063 0.000067 -0.000003 0.000000 0.000000 0.000021 -0.000000 -0.000000 -0.000005 0.000007 -0.000018 2.514542 0.442232 -7.937017 0.000007 0.000000 0.000002 0.000003 -0.000004 0.000013 0.000001 0.000000 -0.000007 1.670577 -1.204906 17.007717 0.000000 -0.000002 0.000002 -0.000000 -0.000005 0.000007 -0.000000 -0.000000 -0.000000 -0.001568 8.451762 17.243192 18.187143 -33.184409 14.455173 -74.369538 19.880727 -8.238616 -2.418123 22.369351 0.288629 -2.002577 24.234602 -24.483788 0.000001 0.000001 -0.000004 25.979444 13.019607 -10.113039 -20.795691 -3.922206 -2.909948 8.821776 1.411229 4.395750 -12.157353 -6.087415 -2.141524 9.869284 -8.498430 12.707961 -21.877571 -20.652334 -6.453816 9.087036 -24.390016 -3.191275 -0.000013 0.000000 -0.000005 0.000323 -1.844472 0.112623 22.055504 23.776727 -28.328850 -65.548103 -17.258047 8.748577 -3.376839 -14.199506 -6.201259 -2.002336 -24.234561 24.483882 -0.000000 0.000000 0.000007 25.979506 -13.019625 10.112846 -20.795684 3.922158 2.910114 8.821760 -1.411239 -4.395818 -12.157354 6.087392 2.141607 9.869182 8.498453 -12.708026 -21.877610 20.652265 6.453980 9.087062 24.390047 3.191193 -0.000003 0.000007 -0.000000 -0.130082 0.000000 -0.000000 3.983345 -0.702281 4.077621 1.383509 -0.427262 4.117214 3.965494 0.231058 -5.344798 0.663290 0.282271 -5.340302 -0.659527 0.293688 -9.481644 1.027752 0.533371 -9.475663 1.908045 -0.175282 7.088165 1.861558 0.220714 7.084877 2.504827 0.702950 7.052489 -38.798422 -25.836697 -27.622590 57.473474 7.512481 10.443478 -67.373293 -18.283458 6.380819 11.156372 1.614763 5.001205 14.361622 3.955900 1.934681 17.133827 6.636280 3.687473 7.853316 4.727566 -7.367980 -21.480858 4.185124 -0.581943 -39.852692 27.416439 27.409235 57.473282 -7.512409 -10.443659 -67.080019 16.412605 -5.941993 11.156363 -1.614670 -5.001235 14.361668 -3.955769 -1.934724 17.133856 -6.636217 -3.687507 7.853377 -4.727390 7.367945 -21.480842 -4.185057 0.581992 
0.000000 0.000000 27.772259 -0.000000 0.000000 0.000044 -12.364014 -0.000094 0.000018 12.364037 0.000009 -0.000017 -0.000000 0.000000 0.000000 2.758307 -0.000001 0.000008 -2.163955 0.000002 -0.000003 13.173153 -0.000003 0.000016 -1.026999 0.000002 -0.000005 -6.445363 0.000002 -0.000016 -12.969248 -0.000063 0.000067 -0.000006 0.000000 0.000000 0.000021 0.000000 -0.000000 -0.000006 0.000007 -0.000015 1.846938 0.359660 -5.845477 0.000002 -0.000001 -0.000001 0.000010 0.000012 0.000008 0.000001 0.000000 -0.000003 1.670578 -1.204905 17.007709 0.000004 -0.000001 0.000003 0.000003 -0.000009 0.000002 -0.000000 -0.000000 -0.000000 -0.001554 8.440218 17.245691 18.186530 -33.176732 14.437394 -74.360631 19.878149 -8.239355 -2.427347 22.360723 0.291119 -2.002579 24.234601 -24.483785 0.000002 -0.000003 0.000000 25.979453 13.019610 -10.113037 -20.795689 -3.922206 -2.909946 8.821784 1.411234 4.395745 -12.157353 -6.087415 -2.141523 9.869293 -8.498451 12.707969 -21.877577 -20.652334 -6.453821 9.087036 -24.390013 -3.191270 0.000003 -0.000006 0.000006 0.000323 -1.844472 0.112623 22.055548 23.776689 -28.328853 -65.548158 -17.258068 8.748575 -3.376819 -14.199481 -6.201234 -2.002340 -24.234572 24.483892 -0.000006 0.000003 0.000001 25.979507 -13.019624 10.112841 -20.795677 3.922166 2.910114 8.821755 -1.411239 -4.395821 -12.157364 6.087386 2.141614 9.869180 8.498447 -12.708024 -21.877610 20.652271 6.453976 9.087064 24.390042 3.191188 -0.000006 0.000007 0.000003 -0.137929 0.000000 -0.000000 3.975490 -0.702280 4.077621 1.375673 -0.426701 4.117301 3.957722 0.232187 -5.344738 0.661838 0.282345 -5.340297 -0.655526 0.293857 -9.481635 1.031669 0.534197 -9.475645 1.911772 -0.173821 7.088177 1.865440 0.221701 7.084827 2.504828 0.702950 7.052488 -38.820575 -25.839104 -27.622207 57.473446 7.512484 10.443475 -67.372870 -18.280629 6.380168 11.156370 1.614750 5.001202 14.361612 3.955909 1.934675 17.133811 6.636272 3.687467 7.853315 4.727560 -7.367977 -21.480872 4.185126 -0.581945 -39.873289 27.416417 27.409278 57.473276 -7.512405 -10.443667 -67.080019 16.412606 -5.941986 11.156363 -1.614656 -5.001237 14.361671 -3.955757 -1.934725 17.133856 -6.636207 -3.687508 7.853381 -4.727378 7.367937 -21.480822 -4.185041 0.581993 
0.000000 0.000000 27.772259 -0.000000 0.000000 0.000044 -12.340022 -0.000093 -0.000010 12.340034 0.000009 -0.000017 -0.000000 -0.000000 0.000000 2.758307 -0.000001 0.000008 -2.163955 0.000002 -0.000003 13.164014 -0.000003 0.000016 -1.027001 0.000002 -0.000005 -6.435315 0.000002 -0.000016 -12.980587 -0.000063 0.000067 -0.000003 0.000000 0.000000 0.000021 -0.000000 -0.000000 -0.000006 0.000007 -0.000015 1.192336 0.254465 -3.785193 0.000004 -0.000003 -0.000008 0.000003 0.000005 0.000000 0.000000 0.000000 -0.000003 1.670579 -1.204910 17.007719 0.000001 -0.000003 0.000002 0.000002 0.000001 -0.000002 -0.000000 0.000000 -0.000000 -0.001568 8.426754 17.248617 18.185671 -33.167795 14.416502 -74.350195 19.875123 -8.240196 -2.438027 22.350633 0.294063 -2.002573 24.234602 -24.483790 0.000000 0.000003 0.000005 25.979448 13.019598 -10.113034 -20.795693 -3.922205 -2.909947 8.821781 1.411235 4.395743 -12.157358 -6.087414 -2.141520 9.869299 -8.498446 12.707972 -21.877576 -20.652334 -6.453819 9.087032 -24.390022 -3.191269 -0.000014 -0.000006 0.000003 0.000323 -1.844472 0.112623 22.055548 23.776691 -28.328853 -65.548158 -17.258064 8.748571 -3.376818 -14.199482 -6.201238 -2.002337 -24.234561 24.483887 -0.000000 0.000001 0.000000 25.979507 -13.019622 10.112842 -20.795682 3.922157 2.910116 8.821761 -1.411233 -4.395823 -12.157356 6.087388 2.141608 9.869181 8.498450 -12.708029 -21.877615 20.652271 6.453973 9.087062 24.390042 3.191191 -0.000005 0.000002 -0.000003 -0.147096 0.000000 -0.000000 3.966332 -0.702280 4.077620 1.366540 -0.426047 4.117399 3.948658 0.233503 -5.344662 0.660147 0.282431 -5.340277 -0.650863 0.294054 -9.481623 1.036237 0.535161 -9.475632 1.916120 -0.172118 7.088180 1.869959 0.222855 7.084781 2.504827 0.702950 7.052488 -38.846513 -25.842014 -27.621806 57.473467 7.512487 10.443480 -67.372337 -18.277173 6.379357 11.156362 1.614754 5.001208 14.361605 3.955912 1.934680 17.133810 6.636284 3.687473 7.853313 4.727557 -7.367967 -21.480868 4.185129 -0.581932 -39.897266 27.416412 27.409255 57.473276 -7.512405 -10.443658 -67.080032 16.412613 -5.941983 11.156367 -1.614676 -5.001241 14.361663 -3.955767 -1.934736 17.133849 -6.636221 -3.687515 7.853381 -4.727383 7.367928 -21.480839 -4.185043 0.581990 
0.000000 0.000000 27.772259 -0.000000 0.000000 0.000044 -12.312700 -0.000093 0.000004 12.312727 0.000009 -0.000017 -0.000000 0.000000 0.000000 2.758307 -0.000001 0.000008 -2.163955 0.000002 -0.000003 13.155250 -0.000003 0.000016 -1.027000 0.000002 -0.000005 -6.425082 0.000002 -0.000016 -12.992070 -0.000063 0.000067 -0.000003 0.000000 0.000000 0.000021 -0.000000 -0.000000 -0.000005 0.000007 -0.000015 0.570402 0.131958 -1.816630 0.000001 -0.000001 -0.000001 -0.000000 -0.000009 0.000008 0.000001 0.000000 -0.000003 1.670575 -1.204907 17.007712 -0.000003 -0.000006 -0.000003 -0.000007 0.000010 -0.000002 -0.000000 0.000000 -0.000000 -0.001543 8.411424 17.251922 18.184675 -33.157597 14.392735 -74.338283 19.871667 -8.241167 -2.450201 22.339172 0.297377 -2.002582 24.234594 -24.483793 0.000005 0.000005 0.000000 25.979449 13.019602 -10.113039 -20.795699 -3.922214 -2.909947 8.821783 1.411228 4.395751 -12.157356 -6.087415 -2.141524 9.869284 -8.498428 12.707961 -21.877572 -20.652337 -6.453820 9.087034 -24.390020 -3.191272 -0.000008 0.000007 -0.000000 0.000323 -1.844472 0.112623 22.055548 23.776689 -28.328855 -65.548158 -17.258068 8.748578 -3.376827 -14.199490 -6.201238 -2.002341 -24.234568 24.483879 -0.000004 0.000002 0.000002 25.979507 -13.019625 10.112843 -20.795684 3.922166 2.910112 8.821754 -1.411238 -4.395821 -12.157358 6.087385 2.141607 9.869185 8.498466 -12.708035 -21.877618 20.652259 6.453980 9.087059 24.390040 3.191192 0.000002 0.000011 -0.000003 -0.157518 0.000000 -0.000000 3.955911 -0.702280 4.077614 1.356144 -0.425304 4.117506 3.938345 0.235000 -5.344577 0.658223 0.282530 -5.340276 -0.645553 0.294278 -9.481623 1.041433 0.536257 -9.475614 1.921065 -0.170182 7.088173 1.875108 0.224167 7.084727 2.504827 0.702950 7.052489 -38.876125 -25.845431 -27.621316 57.473467 7.512488 10.443480 -67.371702 -18.273102 6.378415 11.156365 1.614747 5.001209 14.361588 3.955890 1.934688 17.133811 6.636275 3.687468 7.853309 4.727561 -7.367975 -21.480883 4.185128 -0.581937 -39.924566 27.416403 27.409266 57.473282 -7.512414 -10.443672 -67.080039 16.412617 -5.941980 11.156363 -1.614671 -5.001231 14.361668 -3.955773 -1.934713 17.133859 -6.636207 -3.687501 7.853388 -4.727391 7.367950 -21.480834 -4.185060 0.581992 
